<svg width="607" height="200" viewBox="0 0 607 200" fill="none" xmlns="http://www.w3.org/2000/svg">
<path d="M100 5.86914C61.421 19.7369 33.832 56.646 33.832 100C33.832 143.354 61.4212 180.262 100 194.13V200H0V0H100V5.86914Z" fill="#171717"/>
<path d="M110.938 144.591V126.835L173.793 27.5455H187.784V53.6818H178.906L133.949 124.847V125.983H220.099V144.591H110.938ZM179.901 173V139.193L180.043 131.097V27.5455H200.852V173H179.901Z" fill="#171717"/>
<path d="M303.5 172.5C343.541 172.5 376 140.041 376 100C376 59.9594 343.541 27.5 303.5 27.5C263.459 27.5 231 59.9594 231 100C231 140.041 263.459 172.5 303.5 172.5Z" stroke="black" stroke-width="7" stroke-miterlimit="10"/>
<path d="M303.5 27.6229V172.5" stroke="black" stroke-width="7" stroke-miterlimit="10"/>
<path d="M303.5 172.5C323.52 172.5 339.75 140.041 339.75 100C339.75 59.9594 323.52 27.5 303.5 27.5C283.48 27.5 267.25 59.9594 267.25 100C267.25 140.041 283.48 172.5 303.5 172.5Z" stroke="black" stroke-width="7" stroke-miterlimit="10"/>
<path d="M231.123 100H376" stroke="black" stroke-width="7" stroke-miterlimit="10"/>
<path d="M386.938 144.591V126.835L449.793 27.5455H463.784V53.6818H454.906L409.949 124.847V125.983H496.099V144.591H386.938ZM455.901 173V139.193L456.043 131.097V27.5455H476.852V173H455.901Z" fill="#171717"/>
<path d="M507 5.51562C546.101 19.101 574.168 56.2723 574.168 100C574.168 143.728 546.101 180.898 507 194.483V200H607V0H507V5.51562Z" fill="#171717"/>
</svg>
