<svg width="203" height="48" viewBox="0 0 203 48" fill="none" xmlns="http://www.w3.org/2000/svg">
<path d="M24 1.36719C14.6787 4.66202 8 13.5504 8 24C8 34.4495 14.6789 43.3369 24 46.6318V48H0V0H24V1.36719Z" fill="white"/>
<path d="M27.9536 41V37.9318L39.4764 25.3182C40.8286 23.8409 41.9423 22.5568 42.8173 21.4659C43.6923 20.3636 44.34 19.3295 44.7605 18.3636C45.1923 17.3864 45.4082 16.3636 45.4082 15.2955C45.4082 14.0682 45.1127 13.0057 44.5218 12.108C43.9423 11.2102 43.1468 10.517 42.1355 10.0284C41.1241 9.53977 39.9877 9.29545 38.7264 9.29545C37.3855 9.29545 36.215 9.57386 35.215 10.1307C34.2264 10.6761 33.4593 11.4432 32.9139 12.4318C32.3798 13.4205 32.1127 14.5795 32.1127 15.9091H28.09C28.09 13.8636 28.5616 12.0682 29.5048 10.5227C30.448 8.97727 31.732 7.77273 33.357 6.90909C34.9934 6.04545 36.8286 5.61364 38.8627 5.61364C40.9082 5.61364 42.7207 6.04545 44.3002 6.90909C45.8798 7.77273 47.1184 8.9375 48.0161 10.4034C48.9139 11.8693 49.3627 13.5 49.3627 15.2955C49.3627 16.5795 49.1298 17.8352 48.6639 19.0625C48.2093 20.2784 47.4139 21.6364 46.2775 23.1364C45.1525 24.625 43.59 26.4432 41.59 28.5909L33.7491 36.9773V37.25H49.9764V41H27.9536ZM66.4825 41.4773C63.9143 41.4773 61.7268 40.7784 59.92 39.3807C58.1132 37.9716 56.7325 35.9318 55.778 33.2614C54.8234 30.5795 54.3461 27.3409 54.3461 23.5455C54.3461 19.7727 54.8234 16.5511 55.778 13.8807C56.7439 11.1989 58.1302 9.15341 59.937 7.74432C61.7552 6.32386 63.937 5.61364 66.4825 5.61364C69.028 5.61364 71.2041 6.32386 73.0109 7.74432C74.8291 9.15341 76.2155 11.1989 77.17 13.8807C78.1359 16.5511 78.6189 19.7727 78.6189 23.5455C78.6189 27.3409 78.1416 30.5795 77.187 33.2614C76.2325 35.9318 74.8518 37.9716 73.045 39.3807C71.2382 40.7784 69.0507 41.4773 66.4825 41.4773ZM66.4825 37.7273C69.028 37.7273 71.0052 36.5 72.4143 34.0455C73.8234 31.5909 74.528 28.0909 74.528 23.5455C74.528 20.5227 74.2041 17.9489 73.5564 15.8239C72.92 13.6989 71.9995 12.0795 70.795 10.9659C69.6018 9.85227 68.1643 9.29545 66.4825 9.29545C63.9598 9.29545 61.9882 10.5398 60.5677 13.0284C59.1473 15.5057 58.437 19.0114 58.437 23.5455C58.437 26.5682 58.7552 29.1364 59.3916 31.25C60.028 33.3636 60.9427 34.9716 62.1359 36.0739C63.3405 37.1761 64.7893 37.7273 66.4825 37.7273ZM83.1761 41V37.9318L94.6989 25.3182C96.0511 23.8409 97.1648 22.5568 98.0398 21.4659C98.9148 20.3636 99.5625 19.3295 99.983 18.3636C100.415 17.3864 100.631 16.3636 100.631 15.2955C100.631 14.0682 100.335 13.0057 99.7443 12.108C99.1648 11.2102 98.3693 10.517 97.358 10.0284C96.3466 9.53977 95.2102 9.29545 93.9489 9.29545C92.608 9.29545 91.4375 9.57386 90.4375 10.1307C89.4489 10.6761 88.6818 11.4432 88.1364 12.4318C87.6023 13.4205 87.3352 14.5795 87.3352 15.9091H83.3125C83.3125 13.8636 83.7841 12.0682 84.7273 10.5227C85.6705 8.97727 86.9545 7.77273 88.5795 6.90909C90.2159 6.04545 92.0511 5.61364 94.0852 5.61364C96.1307 5.61364 97.9432 6.04545 99.5227 6.90909C101.102 7.77273 102.341 8.9375 103.239 10.4034C104.136 11.8693 104.585 13.5 104.585 15.2955C104.585 16.5795 104.352 17.8352 103.886 19.0625C103.432 20.2784 102.636 21.6364 101.5 23.1364C100.375 24.625 98.8125 26.4432 96.8125 28.5909L88.9716 36.9773V37.25H105.199V41H83.1761ZM121.91 41.4773C120.478 41.4545 119.046 41.1818 117.614 40.6591C116.182 40.1364 114.875 39.2557 113.694 38.017C112.512 36.767 111.563 35.0795 110.847 32.9545C110.131 30.8182 109.773 28.1364 109.773 24.9091C109.773 21.8182 110.063 19.0795 110.642 16.6932C111.222 14.2955 112.063 12.2784 113.165 10.642C114.267 8.99432 115.597 7.74432 117.154 6.89204C118.722 6.03977 120.489 5.61364 122.455 5.61364C124.41 5.61364 126.148 6.00568 127.671 6.78977C129.205 7.5625 130.455 8.64204 131.421 10.0284C132.387 11.4148 133.012 13.0114 133.296 14.8182H129.137C128.75 13.25 128 11.9489 126.887 10.9148C125.773 9.88068 124.296 9.36364 122.455 9.36364C119.75 9.36364 117.62 10.5398 116.063 12.892C114.517 15.2443 113.739 18.5455 113.728 22.7955H114C114.637 21.8295 115.392 21.0057 116.267 20.3239C117.154 19.6307 118.131 19.0966 119.199 18.7216C120.267 18.3466 121.398 18.1591 122.591 18.1591C124.591 18.1591 126.421 18.6591 128.08 19.6591C129.739 20.6477 131.069 22.017 132.069 23.767C133.069 25.5057 133.569 27.5 133.569 29.75C133.569 31.9091 133.086 33.8864 132.12 35.6818C131.154 37.4659 129.796 38.8864 128.046 39.9432C126.307 40.9886 124.262 41.5 121.91 41.4773ZM121.91 37.7273C123.341 37.7273 124.625 37.3693 125.762 36.6534C126.91 35.9375 127.813 34.9773 128.472 33.7727C129.142 32.5682 129.478 31.2273 129.478 29.75C129.478 28.3068 129.154 26.9943 128.506 25.8125C127.87 24.6193 126.989 23.6705 125.864 22.9659C124.75 22.2614 123.478 21.9091 122.046 21.9091C120.966 21.9091 119.961 22.125 119.029 22.5568C118.097 22.9773 117.279 23.5568 116.574 24.2955C115.881 25.0341 115.336 25.8807 114.938 26.8352C114.54 27.7784 114.341 28.7727 114.341 29.8182C114.341 31.2045 114.665 32.5 115.313 33.7045C115.972 34.9091 116.87 35.8807 118.006 36.6193C119.154 37.358 120.455 37.7273 121.91 37.7273ZM146.738 23.5455C146.738 21.6818 147.193 19.983 148.102 18.4489C149.011 16.9148 150.232 15.6932 151.767 14.7841C153.301 13.875 154.999 13.4205 156.863 13.4205C158.477 13.4205 159.965 13.767 161.329 14.4602C162.704 15.1534 163.84 16.1023 164.738 17.3068C165.636 18.5 166.193 19.8523 166.409 21.3636H162.284C162.056 20.1932 161.426 19.2386 160.392 18.5C159.357 17.75 158.181 17.375 156.863 17.375C155.727 17.375 154.693 17.6534 153.761 18.2102C152.829 18.767 152.085 19.5114 151.528 20.4432C150.971 21.375 150.693 22.4091 150.693 23.5455C150.693 24.6818 150.971 25.7159 151.528 26.6477C152.085 27.5795 152.829 28.3239 153.761 28.8807C154.693 29.4375 155.727 29.7159 156.863 29.7159C158.181 29.7159 159.295 29.3466 160.204 28.608C161.124 27.858 161.704 26.8977 161.943 25.7273H166.068C165.852 27.2386 165.323 28.5966 164.482 29.8011C163.642 30.9943 162.562 31.9375 161.244 32.6307C159.937 33.3239 158.477 33.6705 156.863 33.6705C154.999 33.6705 153.301 33.2159 151.767 32.3068C150.232 31.3977 149.011 30.1761 148.102 28.642C147.193 27.108 146.738 25.4091 146.738 23.5455ZM156.693 41.5455C154.215 41.5455 151.886 41.0795 149.704 40.1477C147.534 39.2159 145.619 37.9261 143.96 36.2784C142.312 34.6193 141.017 32.7045 140.073 30.5341C139.142 28.3636 138.681 26.0341 138.693 23.5455C138.704 21.0568 139.176 18.7273 140.107 16.5568C141.051 14.3864 142.346 12.4773 143.994 10.8295C145.642 9.17045 147.551 7.875 149.721 6.94318C151.892 6.01136 154.215 5.54545 156.693 5.54545C159.181 5.54545 161.511 6.01136 163.681 6.94318C165.863 7.875 167.772 9.17045 169.409 10.8295C171.056 12.4773 172.346 14.3864 173.278 16.5568C174.21 18.7273 174.681 21.0568 174.693 23.5455C174.704 26.0341 174.244 28.3636 173.312 30.5341C172.38 32.7045 171.09 34.6193 169.443 36.2784C167.795 37.9261 165.88 39.2159 163.698 40.1477C161.517 41.0795 159.181 41.5455 156.693 41.5455ZM156.693 37.5909C158.636 37.5909 160.46 37.2273 162.164 36.5C163.869 35.7727 165.363 34.767 166.647 33.483C167.931 32.1989 168.937 30.7102 169.664 29.017C170.392 27.3125 170.749 25.4943 170.738 23.5625C170.727 21.6193 170.357 19.7955 169.63 18.0909C168.903 16.3864 167.897 14.892 166.613 13.608C165.329 12.3239 163.84 11.3182 162.147 10.5909C160.454 9.86364 158.636 9.5 156.693 9.5C154.761 9.5 152.948 9.86364 151.255 10.5909C149.562 11.3182 148.073 12.3295 146.789 13.625C145.505 14.9091 144.494 16.4034 143.755 18.108C143.028 19.8011 142.659 21.6193 142.647 23.5625C142.636 25.483 142.994 27.2955 143.721 29C144.448 30.6932 145.454 32.1818 146.738 33.4659C148.034 34.75 149.528 35.7614 151.221 36.5C152.926 37.2273 154.749 37.5909 156.693 37.5909Z" fill="white"/>
<path d="M179 1.36719C188.321 4.66202 195 13.5504 195 24C195 34.4495 188.321 43.3369 179 46.6318V48H203V0H179V1.36719Z" fill="white"/>
</svg>
