<svg width="73" height="34" viewBox="0 0 73 34" fill="none" xmlns="http://www.w3.org/2000/svg">
<path d="M19.3126 1H12.6875C11.562 1 10.6667 1.89601 10.6667 3.02241V9.65281C10.6667 10.7792 11.562 11.6752 12.6875 11.6752H19.3126C20.4381 11.6752 21.3334 10.7792 21.3334 9.65281V3.02241C21.3334 1.89601 20.4125 1 19.3126 1Z" fill="white"/>
<path d="M12.6875 33H19.3126C20.4381 33 21.3334 32.104 21.3334 30.9776V24.3472C21.3334 23.2208 20.4381 22.3248 19.3126 22.3248H12.6875C11.562 22.3248 10.6667 23.2208 10.6667 24.3472V30.9776C10.6667 32.0784 11.5876 33 12.6875 33Z" fill="white"/>
<path d="M21.3333 13.672V20.3024C21.3333 21.4288 22.2285 22.3248 23.354 22.3248H29.9791C31.1046 22.3248 31.9999 21.4288 31.9999 20.3024V13.672C31.9999 12.5456 31.1046 11.6496 29.9791 11.6496H23.354C22.2285 11.6496 21.3333 12.5712 21.3333 13.672Z" fill="white"/>
<path d="M0 13.672V20.3024C0 21.4288 0.895289 22.3248 2.02079 22.3248H8.64589C9.77139 22.3248 10.6667 21.4288 10.6667 20.3024V13.672C10.6667 12.5456 9.77139 11.6496 8.64589 11.6496H2.02079C0.920869 11.6496 0 12.5712 0 13.672Z" fill="white"/>
<path d="M55.9999 33C64.8365 33 71.9999 25.8366 71.9999 17C71.9999 8.16344 64.8365 1 55.9999 1C47.1634 1 39.9999 8.16344 39.9999 17C39.9999 25.8366 47.1634 33 55.9999 33Z" stroke="white" stroke-width="2" stroke-miterlimit="10"/>
<path d="M55.9999 1.02713V33" stroke="white" stroke-width="2" stroke-miterlimit="10"/>
<path d="M55.9999 33C60.4182 33 63.9999 25.8366 63.9999 17C63.9999 8.16344 60.4182 1 55.9999 1C51.5817 1 47.9999 8.16344 47.9999 17C47.9999 25.8366 51.5817 33 55.9999 33Z" stroke="white" stroke-width="2" stroke-miterlimit="10"/>
<path d="M40.0271 17H72" stroke="white" stroke-width="2" stroke-miterlimit="10"/>
</svg>
