<svg width="104" height="48" viewBox="0 0 104 48" fill="none" xmlns="http://www.w3.org/2000/svg">
<path d="M33.9456 0H14.0544L0 14.0544V33.9456L14.0544 48H33.9456L48 33.9456V14.0928L33.9456 0ZM24.0384 33.7536C18.6624 33.7536 14.3232 29.4144 14.3232 24.0384C14.3232 18.6624 18.6624 14.3232 24.0384 14.3232C29.4144 14.3232 33.7536 18.6624 33.7536 24.0384C33.7536 29.376 29.376 33.7536 24.0384 33.7536Z" fill="#0F0F0F"/>
<path d="M72.9208 5.52518C74.4466 5.52518 75.6834 4.28833 75.6834 2.76259C75.6834 1.23685 74.4466 0 72.9208 0C71.3951 0 70.1583 1.23685 70.1583 2.76259C70.1583 4.28833 71.3951 5.52518 72.9208 5.52518Z" fill="#0F0F0F"/>
<path d="M79.9807 5.52518C81.5065 5.52518 82.7433 4.28833 82.7433 2.76259C82.7433 1.23685 81.5065 0 79.9807 0C78.455 0 77.2181 1.23685 77.2181 2.76259C77.2181 4.28833 78.455 5.52518 79.9807 5.52518Z" fill="#0F0F0F"/>
<path d="M87.0791 5.52518C88.6048 5.52518 89.8416 4.28833 89.8416 2.76259C89.8416 1.23685 88.6048 0 87.0791 0C85.5533 0 84.3165 1.23685 84.3165 2.76259C84.3165 4.28833 85.5533 5.52518 87.0791 5.52518Z" fill="#0F0F0F"/>
<path d="M72.9208 12.6233C74.4466 12.6233 75.6834 11.3865 75.6834 9.86073C75.6834 8.335 74.4466 7.09814 72.9208 7.09814C71.3951 7.09814 70.1583 8.335 70.1583 9.86073C70.1583 11.3865 71.3951 12.6233 72.9208 12.6233Z" fill="#0F0F0F"/>
<path d="M65.8609 12.6233C67.3866 12.6233 68.6235 11.3865 68.6235 9.86073C68.6235 8.335 67.3866 7.09814 65.8609 7.09814C64.3352 7.09814 63.0983 8.335 63.0983 9.86073C63.0983 11.3865 64.3352 12.6233 65.8609 12.6233Z" fill="#0F0F0F"/>
<path d="M79.9807 12.6233C81.5065 12.6233 82.7433 11.3865 82.7433 9.86073C82.7433 8.335 81.5065 7.09814 79.9807 7.09814C78.455 7.09814 77.2181 8.335 77.2181 9.86073C77.2181 11.3865 78.455 12.6233 79.9807 12.6233Z" fill="#0F0F0F"/>
<path d="M87.0791 12.6233C88.6048 12.6233 89.8416 11.3865 89.8416 9.86073C89.8416 8.335 88.6048 7.09814 87.0791 7.09814C85.5533 7.09814 84.3165 8.335 84.3165 9.86073C84.3165 11.3865 85.5533 12.6233 87.0791 12.6233Z" fill="#0F0F0F"/>
<path d="M94.1392 12.6233C95.6649 12.6233 96.9018 11.3865 96.9018 9.86073C96.9018 8.335 95.6649 7.09814 94.1392 7.09814C92.6134 7.09814 91.3766 8.335 91.3766 9.86073C91.3766 11.3865 92.6134 12.6233 94.1392 12.6233Z" fill="#0F0F0F"/>
<path d="M87.0791 47.9998C88.6048 47.9998 89.8416 46.7629 89.8416 45.2372C89.8416 43.7115 88.6048 42.4746 87.0791 42.4746C85.5533 42.4746 84.3165 43.7115 84.3165 45.2372C84.3165 46.7629 85.5533 47.9998 87.0791 47.9998Z" fill="#0F0F0F"/>
<path d="M79.9807 47.9998C81.5065 47.9998 82.7433 46.7629 82.7433 45.2372C82.7433 43.7115 81.5065 42.4746 79.9807 42.4746C78.455 42.4746 77.2181 43.7115 77.2181 45.2372C77.2181 46.7629 78.455 47.9998 79.9807 47.9998Z" fill="#0F0F0F"/>
<path d="M72.9208 47.9998C74.4466 47.9998 75.6834 46.7629 75.6834 45.2372C75.6834 43.7115 74.4466 42.4746 72.9208 42.4746C71.3951 42.4746 70.1583 43.7115 70.1583 45.2372C70.1583 46.7629 71.3951 47.9998 72.9208 47.9998Z" fill="#0F0F0F"/>
<path d="M87.0791 40.9016C88.6048 40.9016 89.8416 39.6648 89.8416 38.1391C89.8416 36.6133 88.6048 35.3765 87.0791 35.3765C85.5533 35.3765 84.3165 36.6133 84.3165 38.1391C84.3165 39.6648 85.5533 40.9016 87.0791 40.9016Z" fill="#0F0F0F"/>
<path d="M94.1392 40.9016C95.6649 40.9016 96.9018 39.6648 96.9018 38.1391C96.9018 36.6133 95.6649 35.3765 94.1392 35.3765C92.6134 35.3765 91.3766 36.6133 91.3766 38.1391C91.3766 39.6648 92.6134 40.9016 94.1392 40.9016Z" fill="#0F0F0F"/>
<path d="M79.9807 40.9016C81.5065 40.9016 82.7433 39.6648 82.7433 38.1391C82.7433 36.6133 81.5065 35.3765 79.9807 35.3765C78.455 35.3765 77.2181 36.6133 77.2181 38.1391C77.2181 39.6648 78.455 40.9016 79.9807 40.9016Z" fill="#0F0F0F"/>
<path d="M72.9208 40.9016C74.4466 40.9016 75.6834 39.6648 75.6834 38.1391C75.6834 36.6133 74.4466 35.3765 72.9208 35.3765C71.3951 35.3765 70.1583 36.6133 70.1583 38.1391C70.1583 39.6648 71.3951 40.9016 72.9208 40.9016Z" fill="#0F0F0F"/>
<path d="M65.8609 40.9016C67.3866 40.9016 68.6235 39.6648 68.6235 38.1391C68.6235 36.6133 67.3866 35.3765 65.8609 35.3765C64.3352 35.3765 63.0983 36.6133 63.0983 38.1391C63.0983 39.6648 64.3352 40.9016 65.8609 40.9016Z" fill="#0F0F0F"/>
<path d="M72.9208 19.6829C74.4466 19.6829 75.6834 18.446 75.6834 16.9203C75.6834 15.3946 74.4466 14.1577 72.9208 14.1577C71.3951 14.1577 70.1583 15.3946 70.1583 16.9203C70.1583 18.446 71.3951 19.6829 72.9208 19.6829Z" fill="#0F0F0F"/>
<path d="M65.8609 19.6829C67.3866 19.6829 68.6235 18.446 68.6235 16.9203C68.6235 15.3946 67.3866 14.1577 65.8609 14.1577C64.3352 14.1577 63.0983 15.3946 63.0983 16.9203C63.0983 18.446 64.3352 19.6829 65.8609 19.6829Z" fill="#0F0F0F"/>
<path d="M58.7626 19.6829C60.2883 19.6829 61.5252 18.446 61.5252 16.9203C61.5252 15.3946 60.2883 14.1577 58.7626 14.1577C57.2368 14.1577 56 15.3946 56 16.9203C56 18.446 57.2368 19.6829 58.7626 19.6829Z" fill="#0F0F0F"/>
<path d="M79.9807 19.6829C81.5065 19.6829 82.7433 18.446 82.7433 16.9203C82.7433 15.3946 81.5065 14.1577 79.9807 14.1577C78.455 14.1577 77.2181 15.3946 77.2181 16.9203C77.2181 18.446 78.455 19.6829 79.9807 19.6829Z" fill="#0F0F0F"/>
<path d="M87.0791 19.6829C88.6048 19.6829 89.8416 18.446 89.8416 16.9203C89.8416 15.3946 88.6048 14.1577 87.0791 14.1577C85.5533 14.1577 84.3165 15.3946 84.3165 16.9203C84.3165 18.446 85.5533 19.6829 87.0791 19.6829Z" fill="#0F0F0F"/>
<path d="M94.1392 19.6829C95.6649 19.6829 96.9018 18.446 96.9018 16.9203C96.9018 15.3946 95.6649 14.1577 94.1392 14.1577C92.6134 14.1577 91.3766 15.3946 91.3766 16.9203C91.3766 18.446 92.6134 19.6829 94.1392 19.6829Z" fill="#0F0F0F"/>
<path d="M101.237 19.6829C102.763 19.6829 104 18.446 104 16.9203C104 15.3946 102.763 14.1577 101.237 14.1577C99.7117 14.1577 98.4749 15.3946 98.4749 16.9203C98.4749 18.446 99.7117 19.6829 101.237 19.6829Z" fill="#0F0F0F"/>
<path d="M72.9208 26.7434C74.4466 26.7434 75.6834 25.5066 75.6834 23.9809C75.6834 22.4551 74.4466 21.2183 72.9208 21.2183C71.3951 21.2183 70.1583 22.4551 70.1583 23.9809C70.1583 25.5066 71.3951 26.7434 72.9208 26.7434Z" fill="#0F0F0F"/>
<path d="M65.8609 26.7434C67.3866 26.7434 68.6235 25.5066 68.6235 23.9809C68.6235 22.4551 67.3866 21.2183 65.8609 21.2183C64.3352 21.2183 63.0983 22.4551 63.0983 23.9809C63.0983 25.5066 64.3352 26.7434 65.8609 26.7434Z" fill="#0F0F0F"/>
<path d="M58.7626 26.7434C60.2883 26.7434 61.5252 25.5066 61.5252 23.9809C61.5252 22.4551 60.2883 21.2183 58.7626 21.2183C57.2368 21.2183 56 22.4551 56 23.9809C56 25.5066 57.2368 26.7434 58.7626 26.7434Z" fill="#0F0F0F"/>
<path d="M79.9807 26.7434C81.5065 26.7434 82.7433 25.5066 82.7433 23.9809C82.7433 22.4551 81.5065 21.2183 79.9807 21.2183C78.455 21.2183 77.2181 22.4551 77.2181 23.9809C77.2181 25.5066 78.455 26.7434 79.9807 26.7434Z" fill="#0F0F0F"/>
<path d="M87.0791 26.7434C88.6048 26.7434 89.8416 25.5066 89.8416 23.9809C89.8416 22.4551 88.6048 21.2183 87.0791 21.2183C85.5533 21.2183 84.3165 22.4551 84.3165 23.9809C84.3165 25.5066 85.5533 26.7434 87.0791 26.7434Z" fill="#0F0F0F"/>
<path d="M94.1392 26.7434C95.6649 26.7434 96.9018 25.5066 96.9018 23.9809C96.9018 22.4551 95.6649 21.2183 94.1392 21.2183C92.6134 21.2183 91.3766 22.4551 91.3766 23.9809C91.3766 25.5066 92.6134 26.7434 94.1392 26.7434Z" fill="#0F0F0F"/>
<path d="M101.237 26.7434C102.763 26.7434 104 25.5066 104 23.9809C104 22.4551 102.763 21.2183 101.237 21.2183C99.7117 21.2183 98.4749 22.4551 98.4749 23.9809C98.4749 25.5066 99.7117 26.7434 101.237 26.7434Z" fill="#0F0F0F"/>
<path d="M72.9208 33.8421C74.4466 33.8421 75.6834 32.6052 75.6834 31.0795C75.6834 29.5537 74.4466 28.3169 72.9208 28.3169C71.3951 28.3169 70.1583 29.5537 70.1583 31.0795C70.1583 32.6052 71.3951 33.8421 72.9208 33.8421Z" fill="#0F0F0F"/>
<path d="M65.8609 33.8421C67.3866 33.8421 68.6235 32.6052 68.6235 31.0795C68.6235 29.5537 67.3866 28.3169 65.8609 28.3169C64.3352 28.3169 63.0983 29.5537 63.0983 31.0795C63.0983 32.6052 64.3352 33.8421 65.8609 33.8421Z" fill="#0F0F0F"/>
<path d="M58.7626 33.8421C60.2883 33.8421 61.5252 32.6052 61.5252 31.0795C61.5252 29.5537 60.2883 28.3169 58.7626 28.3169C57.2368 28.3169 56 29.5537 56 31.0795C56 32.6052 57.2368 33.8421 58.7626 33.8421Z" fill="#0F0F0F"/>
<path d="M79.9807 33.8421C81.5065 33.8421 82.7433 32.6052 82.7433 31.0795C82.7433 29.5537 81.5065 28.3169 79.9807 28.3169C78.455 28.3169 77.2181 29.5537 77.2181 31.0795C77.2181 32.6052 78.455 33.8421 79.9807 33.8421Z" fill="#0F0F0F"/>
<path d="M87.0791 33.8421C88.6048 33.8421 89.8416 32.6052 89.8416 31.0795C89.8416 29.5537 88.6048 28.3169 87.0791 28.3169C85.5533 28.3169 84.3165 29.5537 84.3165 31.0795C84.3165 32.6052 85.5533 33.8421 87.0791 33.8421Z" fill="#0F0F0F"/>
<path d="M94.1392 33.8421C95.6649 33.8421 96.9018 32.6052 96.9018 31.0795C96.9018 29.5537 95.6649 28.3169 94.1392 28.3169C92.6134 28.3169 91.3766 29.5537 91.3766 31.0795C91.3766 32.6052 92.6134 33.8421 94.1392 33.8421Z" fill="#0F0F0F"/>
<path d="M101.237 33.8421C102.763 33.8421 104 32.6052 104 31.0795C104 29.5537 102.763 28.3169 101.237 28.3169C99.7117 28.3169 98.4749 29.5537 98.4749 31.0795C98.4749 32.6052 99.7117 33.8421 101.237 33.8421Z" fill="#0F0F0F"/>
</svg>
