<svg width="16" height="16" viewBox="0 0 16 16" fill="none" xmlns="http://www.w3.org/2000/svg">
<circle cx="8" cy="8" r="8" fill="#171717"/>
<path d="M8 4C8.20071 4 8.36309 4.16261 8.36328 4.36328V7.63672H11.6367C11.8374 7.63691 12 7.79929 12 8C12 8.2007 11.8374 8.36309 11.6367 8.36328H8.36328V11.6367C8.36309 11.8374 8.20071 12 8 12C7.7993 12 7.63691 11.8374 7.63672 11.6367V8.36328H4.36328C4.16262 8.36309 4.00002 8.2007 4 8C4 7.79929 4.16261 7.63691 4.36328 7.63672H7.63672V4.36328C7.63691 4.16262 7.7993 4.00002 8 4Z" fill="white"/>
</svg>
