<svg width="16" height="16" viewBox="0 0 16 16" fill="none" xmlns="http://www.w3.org/2000/svg">
<g clip-path="url(#clip0_1801_9951)">
<path fill-rule="evenodd" clip-rule="evenodd" d="M11.0649 4.93509C10.2839 4.15404 9.01757 4.15404 8.23652 4.93509C7.45547 5.71613 7.45547 6.98246 8.23652 7.76351C9.01757 8.54456 10.2839 8.54456 11.0649 7.76351C11.846 6.98246 11.846 5.71613 11.0649 4.93509ZM9.17933 5.87789C9.43968 5.61754 9.86179 5.61754 10.1221 5.87789C10.3825 6.13824 10.3825 6.56035 10.1221 6.8207C9.86179 7.08105 9.43968 7.08105 9.17933 6.8207C8.91898 6.56035 8.91898 6.13824 9.17933 5.87789Z" fill="#171717"/>
<path fill-rule="evenodd" clip-rule="evenodd" d="M14.8362 1.16406C14.7002 1.028 14.4918 0.958803 14.2999 0.971754C14.288 0.972634 14.2711 0.973932 14.2494 0.975701C14.206 0.979239 14.1435 0.984664 14.0639 0.992407C13.9048 1.00789 13.6771 1.03266 13.3981 1.07021C12.841 1.14518 12.074 1.27171 11.2357 1.47845C9.64503 1.87075 7.65009 2.58577 6.42457 3.90905L3.25976 5.26511C3.11481 5.32722 2.99657 5.43871 2.92604 5.57975L1.04042 9.35099C0.91984 9.59216 0.956399 9.88221 1.13305 10.0859C1.30971 10.2896 1.59167 10.3669 1.84747 10.2816L4.28525 9.46925L6.53099 11.715L5.71832 14.1523C5.63302 14.4081 5.71023 14.6901 5.91393 14.8668C6.11763 15.0435 6.40771 15.0801 6.6489 14.9595L10.4201 13.0738C10.5611 13.0033 10.6726 12.8851 10.7347 12.7402L12.0912 9.57577C13.4145 8.35026 14.1295 6.35529 14.5219 4.76458C14.7286 3.92627 14.8551 3.15932 14.9301 2.60223C14.9676 2.32319 14.9924 2.09555 15.0079 1.93641C15.0156 1.85681 15.0211 1.79425 15.0246 1.75088C15.0264 1.7292 15.0277 1.7123 15.0285 1.70045L15.0296 1.68651L15.0298 1.68243L15.0299 1.68114C15.0429 1.48915 14.9723 1.30013 14.8362 1.16406ZM10.0384 10.9805C9.72866 11.1511 9.42554 11.3062 9.1462 11.4427C8.6968 11.6623 8.29597 11.84 8.00709 11.9629C7.94181 11.9906 7.88216 12.0157 7.82887 12.0378L7.49235 13.047L9.60545 11.9905L10.0384 10.9805ZM7.45174 10.7501L7.48509 10.736C7.75771 10.62 8.13675 10.452 8.56082 10.2448C9.42198 9.82397 10.4185 9.26533 11.0995 8.67441C12.1644 7.75038 12.8329 6.04474 13.2273 4.44532C13.4197 3.66526 13.5383 2.94747 13.6087 2.42441L13.6137 2.38658L13.5759 2.39164C13.0528 2.46202 12.335 2.58062 11.555 2.773C9.95556 3.16745 8.24992 3.83595 7.32589 4.90082C6.73498 5.5818 6.17633 6.57832 5.75552 7.43949C5.5483 7.86355 5.38033 8.24259 5.26434 8.51521L5.25018 8.54856L7.45174 10.7501ZM3.96256 8.17137C3.98467 8.11809 4.00967 8.05847 4.03743 7.99321C4.16034 7.70433 4.33797 7.3035 4.55757 6.8541C4.69414 6.57462 4.84933 6.27133 5.02006 5.96144L4.00939 6.39449L2.95268 8.5079L3.96256 8.17137Z" fill="#171717"/>
<path fill-rule="evenodd" clip-rule="evenodd" d="M3.78307 10.4309C4.02262 10.351 4.28673 10.4134 4.46529 10.5919L5.4081 11.5347C5.58665 11.7133 5.649 11.9774 5.56915 12.217L5.09774 13.6312C5.03139 13.8303 4.87518 13.9865 4.67611 14.0528L1.84768 14.9956C1.60812 15.0755 1.34401 15.0131 1.16546 14.8346C0.986903 14.656 0.924554 14.3919 1.00441 14.1524L1.94722 11.3239C2.01357 11.1249 2.16978 10.9686 2.36885 10.9023L3.78307 10.4309ZM3.81382 11.8261L3.10672 12.0618L2.69095 13.3091L3.93824 12.8933L4.17395 12.1862L3.81382 11.8261Z" fill="#171717"/>
</g>
<defs>
<clipPath id="clip0_1801_9951">
<rect width="16" height="16" fill="white"/>
</clipPath>
</defs>
</svg>
