<svg width="16" height="16" viewBox="0 0 16 16" fill="none" xmlns="http://www.w3.org/2000/svg">
<g clip-path="url(#clip0_1801_9899)">
<path d="M8.88889 1.84079C11.9043 2.27211 14.2222 4.86536 14.2222 8C14.2222 11.4364 11.4364 14.2222 8 14.2222C4.56356 14.2222 1.77778 11.4364 1.77778 8C1.77778 6.18808 2.55225 4.55706 3.78822 3.41989L2.53029 2.16196C0.97299 3.6216 0 5.69717 0 8C0 12.4183 3.58172 16 8 16C12.4183 16 16 12.4183 16 8C16 3.58172 12.4183 0 8 0C7.69955 0 7.40296 0.0165629 7.11111 0.0488256V5.40934H8.88889V1.84079Z" fill="#171717"/>
<path d="M4.18409 5.07296C3.83696 5.42009 3.83696 5.9829 4.1841 6.33004L6.69825 8.84419C7.04539 9.19133 7.6082 9.19133 7.95533 8.84419C8.30246 8.49706 8.30246 7.93425 7.95533 7.58711L5.44117 5.07296C5.09404 4.72583 4.53123 4.72583 4.18409 5.07296Z" fill="#171717"/>
</g>
<defs>
<clipPath id="clip0_1801_9899">
<rect width="16" height="16" fill="white" transform="matrix(-1 0 0 1 16 0)"/>
</clipPath>
</defs>
</svg>
