<svg width="30" height="27" viewBox="0 0 30 27" fill="none" xmlns="http://www.w3.org/2000/svg">
<path d="M29.0047 0.267286L28.422 5.19723C26.7581 5.07844 25.5072 5.39522 24.6692 6.14758C23.8311 6.89994 23.3019 7.92948 23.0816 9.23622C22.8612 10.5429 22.8256 11.9883 22.9748 13.5722H29.2369L29.4712 26.9959H17.5551L17.2897 11.7903C17.2171 7.6325 18.196 4.50426 20.2265 2.40558C22.2968 0.267287 25.2228 -0.445477 29.0047 0.267286ZM11.9208 0.267286L11.3381 5.19723C9.67425 5.07844 8.42332 5.39522 7.58529 6.14758C6.74727 6.89994 6.21807 7.92948 5.9977 9.23622C5.77732 10.5429 5.74175 11.9883 5.89099 13.5722H12.153L12.3874 26.9959H0.471215L0.2058 11.7903C0.133226 7.6325 1.11217 4.50426 3.14262 2.40558C5.21291 0.267287 8.13897 -0.445477 11.9208 0.267286Z" fill="#171717"/>
</svg>
