<svg width="20" height="20" viewBox="0 0 20 20" fill="none" xmlns="http://www.w3.org/2000/svg">
<path d="M11.1326 0.858615L12.6777 5.8285C12.8362 6.33971 13.2926 6.68712 13.8077 6.68712H18.8082C19.9606 6.68712 20.4395 8.22795 19.5076 8.93536L15.4613 12.008C15.0445 12.3248 14.8705 12.8846 15.029 13.3976L16.5741 18.3675C16.9307 19.5124 15.6766 20.4646 14.7447 19.7572L10.6985 16.6845C10.2816 16.3677 9.71836 16.3677 9.30151 16.6845L5.25526 19.7572C4.32336 20.4646 3.06935 19.5124 3.42592 18.3675L4.97104 13.3976C5.12951 12.8864 4.95553 12.3248 4.53868 12.008L0.492429 8.93536C-0.439466 8.22795 0.0394005 6.68712 1.19178 6.68712H6.19232C6.70736 6.68712 7.16383 6.33971 7.32231 5.8285L8.86742 0.858615C9.22571 -0.286205 10.776 -0.286205 11.1326 0.858615Z" fill="#171717"/>
</svg>
