<svg width="1856" height="291" viewBox="0 0 1856 291" fill="none" xmlns="http://www.w3.org/2000/svg">
<path d="M1704.73 77.7705L1629.18 287.021H1582.68L1506.73 77.7705H1552.82L1605.73 245.051H1606.53L1659.44 77.7705H1704.73Z" fill="url(#paint0_linear_3023_416)"/>
<path d="M1405.11 291C1344.79 291 1305.11 249.826 1305.11 182.397C1305.11 115.166 1344.99 73.9922 1405.11 73.9922C1465.24 73.9922 1505.12 115.166 1505.12 182.397C1505.12 249.826 1465.44 291 1405.11 291ZM1405.11 255.595C1439.18 255.595 1461.03 228.941 1461.03 182.397C1461.03 136.051 1438.98 109.398 1405.11 109.398C1371.25 109.398 1349.2 136.051 1349.2 182.397C1349.2 228.941 1371.25 255.595 1405.11 255.595Z" fill="url(#paint1_linear_3023_416)"/>
<path d="M1197.28 287.021V77.7711H1238.56V113.375H1239.57C1246.58 88.9099 1265.42 74.3896 1290.27 74.3896C1296.48 74.3896 1301.89 75.3842 1305.1 75.9809V115.961C1301.69 114.569 1294.08 113.574 1285.66 113.574C1257.8 113.574 1240.57 132.073 1240.57 161.71V287.021H1197.28Z" fill="url(#paint2_linear_3023_416)"/>
<path d="M1072.02 291C1011.69 291 972.014 249.826 972.014 182.397C972.014 115.166 1011.89 73.9922 1072.02 73.9922C1132.14 73.9922 1172.02 115.166 1172.02 182.397C1172.02 249.826 1132.34 291 1072.02 291ZM1072.02 255.595C1106.09 255.595 1127.93 228.941 1127.93 182.397C1127.93 136.051 1105.89 109.398 1072.02 109.398C1038.15 109.398 1016.1 136.051 1016.1 182.397C1016.1 228.941 1038.15 255.595 1072.02 255.595Z" fill="url(#paint3_linear_3023_416)"/>
<path d="M763.838 287.023V0H806.726V112.78H807.728C819.351 88.3148 842.398 74.1924 874.463 74.1924C920.758 74.1924 948.414 104.824 948.414 152.164V287.023H904.925V160.518C904.925 129.688 889.294 111.189 858.832 111.189C826.766 111.189 807.126 133.069 807.126 166.088V287.023H763.838Z" fill="url(#paint4_linear_3023_416)"/>
<path d="M607.86 167.48L693.033 77.7727H743.937L656.559 167.878L747.344 287.023H697.041L625.496 194.133L607.459 211.836V287.023H564.171V0H607.459V167.48H607.86Z" fill="url(#paint5_linear_3023_416)"/>
<path d="M437.305 291C376.982 291 337.302 249.826 337.302 182.397C337.302 115.166 377.183 73.9922 437.305 73.9922C497.428 73.9922 537.309 115.166 537.309 182.397C537.309 249.826 497.628 291 437.305 291ZM437.305 255.595C471.374 255.595 493.219 228.941 493.219 182.397C493.219 136.051 471.174 109.398 437.305 109.398C403.436 109.398 381.391 136.051 381.391 182.397C381.391 228.941 403.436 255.595 437.305 255.595Z" fill="url(#paint6_linear_3023_416)"/>
<path d="M229.472 287.021V77.7711H270.756V113.375H271.758C278.773 88.9099 297.611 74.3896 322.462 74.3896C328.674 74.3896 334.085 75.3842 337.292 75.9809V115.961C333.885 114.569 326.269 113.574 317.852 113.574C289.995 113.574 272.76 132.073 272.76 161.71V287.021H229.472Z" fill="url(#paint7_linear_3023_416)"/>
<path d="M0 0H108.421C164.535 0 203.614 38.3891 203.614 94.282C203.614 150.374 163.733 188.962 107.018 188.962H44.8914V287.023H0V0ZM44.8914 37.5935V151.567H96.3962C135.476 151.567 157.721 130.682 157.721 94.4809C157.721 58.2798 135.476 37.5935 96.5966 37.5935H44.8914Z" fill="url(#paint8_linear_3023_416)"/>
<path d="M1781.86 79.6323V28.9697H1807.53C1809.59 28.9697 1811.84 29.5646 1814.26 30.7546C1816.69 31.8987 1818.75 33.6836 1820.44 36.1091C1822.18 38.489 1823.05 41.5095 1823.05 45.1708C1823.05 48.8778 1822.16 52.0356 1820.37 54.6443C1818.59 57.2071 1816.41 59.1522 1813.85 60.4794C1811.33 61.8066 1808.95 62.4702 1806.71 62.4702H1788.17V54.2324H1803.28C1804.79 54.2324 1806.41 53.4772 1808.15 51.967C1809.94 50.4567 1810.83 48.1913 1810.83 45.1708C1810.83 42.0587 1809.94 39.9535 1808.15 38.8551C1806.41 37.7567 1804.88 37.2075 1803.55 37.2075H1792.98V79.6323H1781.86ZM1812.48 55.7426L1825.11 79.6323H1812.89L1800.53 55.7426H1812.48ZM1801.08 109.838C1793.48 109.838 1786.37 108.419 1779.73 105.581C1773.09 102.744 1767.26 98.8082 1762.23 93.7739C1757.19 88.7397 1753.26 82.9046 1750.42 76.2685C1747.58 69.6325 1746.16 62.516 1746.16 54.9188C1746.16 47.3217 1747.58 40.2052 1750.42 33.5691C1753.26 26.9331 1757.19 21.098 1762.23 16.0638C1767.26 11.0295 1773.09 7.09369 1779.73 4.25621C1786.37 1.41874 1793.48 0 1801.08 0C1808.68 0 1815.79 1.41874 1822.43 4.25621C1829.07 7.09369 1834.9 11.0295 1839.94 16.0638C1844.97 21.098 1848.91 26.9331 1851.74 33.5691C1854.58 40.2052 1856 47.3217 1856 54.9188C1856 62.516 1854.58 69.6325 1851.74 76.2685C1848.91 82.9046 1844.97 88.7397 1839.94 93.7739C1834.9 98.8082 1829.07 102.744 1822.43 105.581C1815.79 108.419 1808.68 109.838 1801.08 109.838ZM1801.08 96.6572C1808.77 96.6572 1815.77 94.7808 1822.09 91.028C1828.4 87.2752 1833.44 82.241 1837.19 75.9253C1840.94 69.6096 1842.82 62.6075 1842.82 54.9188C1842.82 47.2302 1840.94 40.228 1837.19 33.9124C1833.44 27.5967 1828.4 22.5625 1822.09 18.8097C1815.77 15.0569 1808.77 13.1805 1801.08 13.1805C1793.39 13.1805 1786.39 15.0569 1780.07 18.8097C1773.76 22.5625 1768.72 27.5967 1764.97 33.9124C1761.22 40.228 1759.34 47.2302 1759.34 54.9188C1759.34 62.6075 1761.22 69.6096 1764.97 75.9253C1768.72 82.241 1773.76 87.2752 1780.07 91.028C1786.39 94.7808 1793.39 96.6572 1801.08 96.6572Z" fill="url(#paint9_linear_3023_416)"/>
<defs>
<linearGradient id="paint0_linear_3023_416" x1="1605.73" y1="77.7705" x2="1605.73" y2="287.021" gradientUnits="userSpaceOnUse">
<stop stop-color="#1F1F1F"/>
<stop offset="1" stop-color="#171717" stop-opacity="0"/>
</linearGradient>
<linearGradient id="paint1_linear_3023_416" x1="1405.11" y1="73.9922" x2="1405.11" y2="291" gradientUnits="userSpaceOnUse">
<stop stop-color="#1F1F1F"/>
<stop offset="1" stop-color="#171717" stop-opacity="0"/>
</linearGradient>
<linearGradient id="paint2_linear_3023_416" x1="1251.19" y1="74.3896" x2="1251.19" y2="287.021" gradientUnits="userSpaceOnUse">
<stop stop-color="#1F1F1F"/>
<stop offset="1" stop-color="#171717" stop-opacity="0"/>
</linearGradient>
<linearGradient id="paint3_linear_3023_416" x1="1072.02" y1="73.9922" x2="1072.02" y2="291" gradientUnits="userSpaceOnUse">
<stop stop-color="#1F1F1F"/>
<stop offset="1" stop-color="#171717" stop-opacity="0"/>
</linearGradient>
<linearGradient id="paint4_linear_3023_416" x1="856.126" y1="0" x2="856.126" y2="287.023" gradientUnits="userSpaceOnUse">
<stop stop-color="#1F1F1F"/>
<stop offset="1" stop-color="#171717" stop-opacity="0"/>
</linearGradient>
<linearGradient id="paint5_linear_3023_416" x1="655.757" y1="0" x2="655.757" y2="287.023" gradientUnits="userSpaceOnUse">
<stop stop-color="#1F1F1F"/>
<stop offset="1" stop-color="#171717" stop-opacity="0"/>
</linearGradient>
<linearGradient id="paint6_linear_3023_416" x1="437.305" y1="73.9922" x2="437.305" y2="291" gradientUnits="userSpaceOnUse">
<stop stop-color="#1F1F1F"/>
<stop offset="1" stop-color="#171717" stop-opacity="0"/>
</linearGradient>
<linearGradient id="paint7_linear_3023_416" x1="283.382" y1="74.3896" x2="283.382" y2="287.021" gradientUnits="userSpaceOnUse">
<stop stop-color="#1F1F1F"/>
<stop offset="1" stop-color="#171717" stop-opacity="0"/>
</linearGradient>
<linearGradient id="paint8_linear_3023_416" x1="101.807" y1="0" x2="101.807" y2="287.023" gradientUnits="userSpaceOnUse">
<stop stop-color="#1F1F1F"/>
<stop offset="1" stop-color="#171717" stop-opacity="0"/>
</linearGradient>
<linearGradient id="paint9_linear_3023_416" x1="1801.08" y1="0" x2="1801.08" y2="109.838" gradientUnits="userSpaceOnUse">
<stop stop-color="#1F1F1F"/>
<stop offset="1" stop-color="#171717" stop-opacity="0"/>
</linearGradient>
</defs>
</svg>
