<svg width="380" height="60" viewBox="0 0 380 60" fill="none" xmlns="http://www.w3.org/2000/svg">
<path d="M348.91 16.0357L333.446 59.1799H323.93L308.384 16.0357H317.818L328.647 50.5265H328.811L339.64 16.0357H348.91Z" fill="white"/>
<path d="M287.587 60.0002C275.24 60.0002 267.119 51.5108 267.119 37.6078C267.119 23.7459 275.282 15.2565 287.587 15.2565C299.892 15.2565 308.055 23.7459 308.055 37.6078C308.055 51.5108 299.933 60.0002 287.587 60.0002ZM287.587 52.7001C294.56 52.7001 299.031 47.2046 299.031 37.6078C299.031 28.0521 294.519 22.5566 287.587 22.5566C280.655 22.5566 276.143 28.0521 276.143 37.6078C276.143 47.2046 280.655 52.7001 287.587 52.7001Z" fill="white"/>
<path d="M245.049 59.1799V16.0357H253.499V23.3768H253.704C255.14 18.3324 258.995 15.3385 264.082 15.3385C265.353 15.3385 266.461 15.5436 267.117 15.6666V23.91C266.42 23.6229 264.861 23.4178 263.138 23.4178C257.437 23.4178 253.909 27.2319 253.909 33.3426V59.1799H245.049Z" fill="white"/>
<path d="M219.412 60.0002C207.066 60.0002 198.944 51.5108 198.944 37.6078C198.944 23.7459 207.107 15.2565 219.412 15.2565C231.717 15.2565 239.88 23.7459 239.88 37.6078C239.88 51.5108 231.758 60.0002 219.412 60.0002ZM219.412 52.7001C226.385 52.7001 230.856 47.2046 230.856 37.6078C230.856 28.0521 226.344 22.5566 219.412 22.5566C212.48 22.5566 207.968 28.0521 207.968 37.6078C207.968 47.2046 212.48 52.7001 219.412 52.7001Z" fill="white"/>
<path d="M156.336 59.1797V0H165.114V23.2536H165.319C167.698 18.2091 172.415 15.2973 178.978 15.2973C188.453 15.2973 194.113 21.6131 194.113 31.3739V59.1797H185.213V33.0964C185.213 26.7396 182.013 22.9255 175.778 22.9255C169.216 22.9255 165.196 27.4368 165.196 34.2447V59.1797H156.336Z" fill="white"/>
<path d="M124.412 34.5318L141.844 16.0355H152.263L134.379 34.6138L152.96 59.1797H142.665L128.021 40.0273L124.33 43.6773V59.1797H115.47V0H124.33V34.5318H124.412Z" fill="white"/>
<path d="M89.5042 60.0002C77.1579 60.0002 69.0363 51.5108 69.0363 37.6078C69.0363 23.7459 77.1989 15.2565 89.5042 15.2565C101.81 15.2565 109.972 23.7459 109.972 37.6078C109.972 51.5108 101.851 60.0002 89.5042 60.0002ZM89.5042 52.7001C96.4773 52.7001 100.948 47.2046 100.948 37.6078C100.948 28.0521 96.4362 22.5566 89.5042 22.5566C82.5722 22.5566 78.0603 28.0521 78.0603 37.6078C78.0603 47.2046 82.5722 52.7001 89.5042 52.7001Z" fill="white"/>
<path d="M46.9667 59.1799V16.0357H55.4164V23.3768H55.6215C57.0571 18.3324 60.9128 15.3385 65.999 15.3385C67.2705 15.3385 68.378 15.5436 69.0343 15.6666V23.91C68.337 23.6229 66.7783 23.4178 65.0556 23.4178C59.3541 23.4178 55.8265 27.2319 55.8265 33.3426V59.1799H46.9667Z" fill="white"/>
<path d="M0 0H22.1906C33.6756 0 41.6741 7.91524 41.6741 19.4395C41.6741 31.0048 33.5115 38.961 21.9035 38.961H9.18799V59.1797H0V0ZM9.18799 7.75119V31.2508H19.7296C27.728 31.2508 32.281 26.9446 32.281 19.4805C32.281 12.0164 27.728 7.75119 19.7706 7.75119H9.18799Z" fill="white"/>
<path d="M364.77 16.3586V5.95115H370.044C370.467 5.95115 370.928 6.07337 371.426 6.31781C371.924 6.55284 372.347 6.9195 372.695 7.41778C373.052 7.90666 373.231 8.52716 373.231 9.27928C373.231 10.0408 373.048 10.6895 372.681 11.2254C372.314 11.7519 371.868 12.1514 371.341 12.4241C370.824 12.6967 370.335 12.833 369.875 12.833H366.067V11.1408H369.169C369.48 11.1408 369.813 10.9856 370.171 10.6754C370.537 10.3651 370.721 9.89977 370.721 9.27928C370.721 8.63997 370.537 8.2075 370.171 7.98187C369.813 7.75623 369.499 7.64342 369.226 7.64342H367.054V16.3586H364.77ZM371.059 11.451L373.654 16.3586H371.144L368.605 11.451H371.059ZM368.718 22.5636C367.158 22.5636 365.696 22.2721 364.332 21.6892C362.969 21.1064 361.77 20.2978 360.736 19.2637C359.702 18.2295 358.894 17.0308 358.311 15.6676C357.728 14.3044 357.436 12.8424 357.436 11.2818C357.436 9.72115 357.728 8.25921 358.311 6.896C358.894 5.53278 359.702 4.33409 360.736 3.29992C361.77 2.26576 362.969 1.45723 364.332 0.87434C365.696 0.291447 367.158 0 368.718 0C370.279 0 371.741 0.291447 373.104 0.87434C374.467 1.45723 375.666 2.26576 376.7 3.29992C377.734 4.33409 378.543 5.53278 379.126 6.896C379.709 8.25921 380 9.72115 380 11.2818C380 12.8424 379.709 14.3044 379.126 15.6676C378.543 17.0308 377.734 18.2295 376.7 19.2637C375.666 20.2978 374.467 21.1064 373.104 21.6892C371.741 22.2721 370.279 22.5636 368.718 22.5636ZM368.718 19.856C370.298 19.856 371.736 19.4705 373.033 18.6996C374.331 17.9286 375.365 16.8945 376.136 15.5971C376.907 14.2997 377.292 12.8612 377.292 11.2818C377.292 9.70234 376.907 8.26391 376.136 6.96651C375.365 5.6691 374.331 4.63494 373.033 3.86401C371.736 3.09309 370.298 2.70763 368.718 2.70763C367.139 2.70763 365.7 3.09309 364.403 3.86401C363.106 4.63494 362.071 5.6691 361.3 6.96651C360.529 8.26391 360.144 9.70234 360.144 11.2818C360.144 12.8612 360.529 14.2997 361.3 15.5971C362.071 16.8945 363.106 17.9286 364.403 18.6996C365.7 19.4705 367.139 19.856 368.718 19.856Z" fill="white"/>
</svg>
