<svg width="144" height="24" viewBox="0 0 144 24" fill="none" xmlns="http://www.w3.org/2000/svg">
<path d="M12.5881 21L12.9205 19.0909L19.8239 12.9716C20.5625 12.3068 21.179 11.7244 21.6733 11.2244C22.1733 10.7187 22.5625 10.2386 22.8409 9.78409C23.125 9.32955 23.3125 8.84659 23.4034 8.33523C23.5 7.75568 23.4489 7.25568 23.25 6.83523C23.0568 6.40909 22.7472 6.08239 22.321 5.85511C21.8949 5.62216 21.3835 5.50568 20.7869 5.50568C20.1619 5.50568 19.5938 5.63352 19.0824 5.8892C18.571 6.14489 18.1449 6.50568 17.804 6.97159C17.4631 7.4375 17.2386 7.98295 17.1307 8.60795H14.625C14.8011 7.54545 15.2045 6.61648 15.8352 5.82102C16.4659 5.02557 17.2472 4.40909 18.179 3.97159C19.1108 3.52841 20.1193 3.30682 21.2045 3.30682C22.3068 3.30682 23.2358 3.52557 23.9915 3.96307C24.7528 4.39489 25.304 4.98579 25.6449 5.73579C25.9858 6.48011 26.0767 7.32102 25.9176 8.25852C25.804 8.91193 25.5739 9.5483 25.2273 10.1676C24.8807 10.7812 24.3466 11.4687 23.625 12.2301C22.9034 12.9858 21.9205 13.9034 20.6761 14.983L16.6193 18.6136L16.5938 18.7415H24.4432L24.0767 21H12.5881ZM32.3809 21.2898C31.0343 21.2898 29.9434 20.9375 29.1082 20.233C28.273 19.5227 27.7161 18.4943 27.4377 17.1477C27.1593 15.8011 27.1735 14.179 27.4803 12.2812C27.7928 10.3892 28.3127 8.77273 29.04 7.43182C29.773 6.09091 30.6735 5.06818 31.7417 4.36364C32.8156 3.65909 34.0201 3.30682 35.3553 3.30682C36.6849 3.30682 37.7701 3.66193 38.611 4.37216C39.4519 5.0767 40.0173 6.09659 40.307 7.43182C40.6025 8.76705 40.5911 10.3835 40.273 12.2812C39.9548 14.1847 39.432 15.8068 38.7048 17.1477C37.9775 18.4886 37.0769 19.5142 36.0031 20.2244C34.9292 20.9347 33.7218 21.2898 32.3809 21.2898ZM32.7559 19.0142C33.9434 19.0142 34.9661 18.4375 35.8241 17.2841C36.682 16.1307 37.2928 14.4631 37.6565 12.2812C37.8951 10.8324 37.9434 9.60795 37.8014 8.60795C37.665 7.60227 37.3553 6.84091 36.8724 6.32386C36.3951 5.80114 35.7644 5.53977 34.9803 5.53977C33.8099 5.53977 32.7928 6.12216 31.9292 7.28693C31.0713 8.44602 30.4633 10.1108 30.1053 12.2812C29.861 13.7358 29.807 14.9659 29.9434 15.9716C30.0798 16.9716 30.3866 17.7301 30.8639 18.2472C31.3411 18.7585 31.9718 19.0142 32.7559 19.0142ZM50.3989 3.54545L47.5012 21H44.8591L47.3137 6.1875H47.2114L42.5836 8.91477L43.0097 6.39204L47.8336 3.54545H50.3989ZM59.8878 3.30682C60.6832 3.3125 61.4417 3.45739 62.1633 3.74148C62.8906 4.01989 63.5156 4.48295 64.0383 5.13068C64.561 5.77841 64.9162 6.64773 65.1037 7.73864C65.2968 8.82386 65.2571 10.179 64.9843 11.804C64.7343 13.3097 64.3622 14.6477 63.8679 15.8182C63.3792 16.9886 62.7883 17.9773 62.0951 18.7841C61.4076 19.5909 60.6292 20.2017 59.7599 20.6165C58.8963 21.0312 57.9645 21.2386 56.9645 21.2386C55.9304 21.2386 55.0355 21.0341 54.2798 20.625C53.5298 20.2159 52.9503 19.6506 52.5412 18.929C52.1378 18.2074 51.9474 17.375 51.9701 16.4318H54.5014C54.5241 17.1932 54.7486 17.8011 55.1747 18.2557C55.6008 18.7102 56.2343 18.9375 57.0753 18.9375C58.3593 18.9375 59.473 18.3835 60.4162 17.2756C61.3593 16.1676 62.0071 14.5739 62.3593 12.4943L62.223 12.6562C61.8423 13.1449 61.4076 13.5597 60.919 13.9006C60.4361 14.2415 59.9162 14.5028 59.3593 14.6847C58.8025 14.8608 58.223 14.9489 57.6207 14.9489C56.5866 14.9489 55.6889 14.6932 54.9275 14.1818C54.1662 13.6705 53.6093 12.9716 53.2571 12.0852C52.9048 11.1989 52.8224 10.1875 53.0099 9.05114C53.1974 7.96591 53.6065 6.98864 54.2372 6.11932C54.8736 5.24432 55.6747 4.55398 56.6406 4.04829C57.6122 3.54261 58.6946 3.29545 59.8878 3.30682ZM59.794 5.52273C59.1122 5.52273 58.4673 5.69318 57.8593 6.03409C57.2571 6.36932 56.7457 6.8267 56.3253 7.40625C55.9105 7.98011 55.6463 8.62216 55.5326 9.33239C55.4304 9.97443 55.4787 10.5597 55.6775 11.0881C55.8764 11.6108 56.1974 12.0284 56.6406 12.3409C57.0895 12.6477 57.6349 12.8011 58.277 12.8011C58.7997 12.8011 59.2997 12.6989 59.777 12.4943C60.2599 12.2898 60.6974 12.0114 61.0895 11.6591C61.4872 11.3011 61.8167 10.8949 62.0781 10.4403C62.3451 9.98011 62.5184 9.49716 62.598 8.99148C62.7059 8.36648 62.6576 7.79261 62.4531 7.26989C62.2542 6.74148 61.9275 6.31818 61.473 6C61.0184 5.68182 60.4588 5.52273 59.794 5.52273ZM74.9441 11.1648L74.5776 13.3807H66.8305L67.1969 11.1648H74.9441ZM75.0068 21L75.3392 19.0909L82.2426 12.9716C82.9813 12.3068 83.5977 11.7244 84.092 11.2244C84.592 10.7187 84.9813 10.2386 85.2597 9.78409C85.5438 9.32955 85.7313 8.84659 85.8222 8.33523C85.9188 7.75568 85.8676 7.25568 85.6688 6.83523C85.4756 6.40909 85.1659 6.08239 84.7398 5.85511C84.3136 5.62216 83.8023 5.50568 83.2057 5.50568C82.5807 5.50568 82.0125 5.63352 81.5011 5.8892C80.9898 6.14489 80.5636 6.50568 80.2227 6.97159C79.8818 7.4375 79.6574 7.98295 79.5494 8.60795H77.0438C77.2199 7.54545 77.6233 6.61648 78.254 5.82102C78.8847 5.02557 79.6659 4.40909 80.5977 3.97159C81.5295 3.52841 82.5381 3.30682 83.6233 3.30682C84.7256 3.30682 85.6545 3.52557 86.4102 3.96307C87.1716 4.39489 87.7227 4.98579 88.0636 5.73579C88.4045 6.48011 88.4955 7.32102 88.3364 8.25852C88.2227 8.91193 87.9926 9.5483 87.646 10.1676C87.2994 10.7812 86.7653 11.4687 86.0438 12.2301C85.3222 12.9858 84.3392 13.9034 83.0949 14.983L79.0381 18.6136L79.0125 18.7415H86.8619L86.4955 21H75.0068ZM94.7997 21.2898C93.4531 21.2898 92.3622 20.9375 91.5269 20.233C90.6917 19.5227 90.1349 18.4943 89.8565 17.1477C89.5781 15.8011 89.5923 14.179 89.8991 12.2812C90.2116 10.3892 90.7315 8.77273 91.4587 7.43182C92.1917 6.09091 93.0923 5.06818 94.1605 4.36364C95.2343 3.65909 96.4389 3.30682 97.7741 3.30682C99.1036 3.30682 100.189 3.66193 101.03 4.37216C101.871 5.0767 102.436 6.09659 102.726 7.43182C103.021 8.76705 103.01 10.3835 102.692 12.2812C102.374 14.1847 101.851 15.8068 101.124 17.1477C100.396 18.4886 99.4957 19.5142 98.4218 20.2244C97.348 20.9347 96.1406 21.2898 94.7997 21.2898ZM95.1747 19.0142C96.3622 19.0142 97.3849 18.4375 98.2428 17.2841C99.1008 16.1307 99.7116 14.4631 100.075 12.2812C100.314 10.8324 100.362 9.60795 100.22 8.60795C100.084 7.60227 99.7741 6.84091 99.2911 6.32386C98.8139 5.80114 98.1832 5.53977 97.3991 5.53977C96.2286 5.53977 95.2116 6.12216 94.348 7.28693C93.49 8.44602 92.882 10.1108 92.5241 12.2812C92.2798 13.7358 92.2258 14.9659 92.3622 15.9716C92.4985 16.9716 92.8053 17.7301 93.2826 18.2472C93.7599 18.7585 94.3906 19.0142 95.1747 19.0142ZM103.298 21L103.63 19.0909L110.534 12.9716C111.272 12.3068 111.889 11.7244 112.383 11.2244C112.883 10.7187 113.272 10.2386 113.551 9.78409C113.835 9.32955 114.022 8.84659 114.113 8.33523C114.21 7.75568 114.159 7.25568 113.96 6.83523C113.767 6.40909 113.457 6.08239 113.031 5.85511C112.605 5.62216 112.093 5.50568 111.497 5.50568C110.872 5.50568 110.303 5.63352 109.792 5.8892C109.281 6.14489 108.855 6.50568 108.514 6.97159C108.173 7.4375 107.948 7.98295 107.84 8.60795H105.335C105.511 7.54545 105.914 6.61648 106.545 5.82102C107.176 5.02557 107.957 4.40909 108.889 3.97159C109.82 3.52841 110.829 3.30682 111.914 3.30682C113.017 3.30682 113.945 3.52557 114.701 3.96307C115.463 4.39489 116.014 4.98579 116.355 5.73579C116.695 6.48011 116.786 7.32102 116.627 8.25852C116.514 8.91193 116.284 9.5483 115.937 10.1676C115.59 10.7812 115.056 11.4687 114.335 12.2301C113.613 12.9858 112.63 13.9034 111.386 14.983L107.329 18.6136L107.303 18.7415H115.153L114.786 21H103.298ZM123.27 21.2386C122.474 21.233 121.713 21.0881 120.985 20.804C120.258 20.5199 119.633 20.054 119.11 19.4062C118.593 18.7528 118.238 17.8778 118.045 16.7812C117.852 15.6847 117.892 14.3239 118.164 12.6989C118.414 11.1989 118.784 9.86932 119.272 8.71023C119.767 7.54545 120.36 6.5625 121.054 5.76136C121.747 4.95455 122.525 4.34375 123.389 3.92898C124.258 3.5142 125.193 3.30682 126.193 3.30682C127.221 3.30682 128.113 3.51136 128.869 3.92045C129.625 4.32955 130.204 4.89205 130.608 5.60795C131.011 6.32386 131.201 7.14489 131.179 8.07102H128.656C128.633 7.33239 128.406 6.73864 127.974 6.28977C127.548 5.83523 126.914 5.60795 126.074 5.60795C124.789 5.60795 123.676 6.16193 122.733 7.26989C121.789 8.37216 121.142 9.9517 120.789 12.0085L120.926 11.8466C121.307 11.358 121.738 10.9432 122.221 10.6023C122.71 10.2614 123.233 10.0028 123.789 9.8267C124.352 9.65057 124.932 9.5625 125.528 9.5625C126.562 9.5625 127.46 9.81818 128.221 10.3295C128.983 10.8352 129.539 11.5312 129.892 12.4176C130.25 13.304 130.332 14.3182 130.139 15.4602C129.951 16.5455 129.542 17.5284 128.912 18.4091C128.281 19.2841 127.48 19.9773 126.508 20.4886C125.542 21 124.463 21.25 123.27 21.2386ZM123.355 19.0227C124.037 19.0227 124.682 18.8523 125.289 18.5114C125.897 18.1648 126.409 17.7017 126.824 17.1222C127.244 16.5369 127.511 15.8892 127.625 15.179C127.727 14.5369 127.679 13.9517 127.48 13.4233C127.281 12.8949 126.957 12.4773 126.508 12.1705C126.065 11.858 125.52 11.7017 124.872 11.7017C124.36 11.7017 123.86 11.804 123.372 12.0085C122.889 12.2131 122.451 12.4943 122.059 12.8523C121.667 13.2045 121.338 13.6108 121.071 14.071C120.804 14.5256 120.63 15.0085 120.551 15.5199C120.449 16.1449 120.497 16.7244 120.696 17.2585C120.895 17.7869 121.221 18.2131 121.676 18.5369C122.136 18.8608 122.696 19.0227 123.355 19.0227Z" fill="#171717"/>
<path d="M12 0.685547C7.33968 2.33313 4 6.77544 4 12C4 17.2244 7.33984 21.6658 12 23.3135V24H0V0H12V0.685547Z" fill="#171717"/>
<path d="M132 0.685547C136.66 2.33313 140 6.77544 140 12C140 17.2244 136.66 21.6658 132 23.3135V24H144V0H132V0.685547Z" fill="#171717"/>
</svg>
