<svg width="100" height="48" viewBox="0 0 100 48" fill="none" xmlns="http://www.w3.org/2000/svg">
<path d="M28.9687 0.00012207H19.0311C17.3429 0.00012207 15.9999 1.34412 15.9999 3.03371V12.9792C15.9999 14.6688 17.3429 16.0128 19.0311 16.0128H28.9687C30.657 16.0128 31.9999 14.6688 31.9999 12.9792V3.03371C31.9999 1.34412 30.6186 0.00012207 28.9687 0.00012207Z" fill="#0F0F0F"/>
<path d="M19.0311 48H28.9687C30.657 48 31.9999 46.656 31.9999 44.9664V35.0209C31.9999 33.3313 30.657 31.9873 28.9687 31.9873H19.0311C17.3429 31.9873 15.9999 33.3313 15.9999 35.0209V44.9664C15.9999 46.6176 17.3812 48 19.0311 48Z" fill="#0F0F0F"/>
<path d="M31.9995 19.0078V28.9534C31.9995 30.6429 33.3424 31.9869 35.0307 31.9869H44.9683C46.6566 31.9869 47.9995 30.6429 47.9995 28.9534V19.0078C47.9995 17.3182 46.6566 15.9742 44.9683 15.9742H35.0307C33.3424 15.9742 31.9995 17.3566 31.9995 19.0078Z" fill="#0F0F0F"/>
<path d="M0 19.0078V28.9534C0 30.6429 1.34293 31.9869 3.03118 31.9869H12.9688C14.6571 31.9869 16 30.6429 16 28.9534V19.0078C16 17.3182 14.6571 15.9742 12.9688 15.9742H3.03118C1.3813 15.9742 0 17.3566 0 19.0078Z" fill="#0F0F0F"/>
<path d="M51.9995 12.7002V35.2998C51.9995 42.3213 57.6782 48 64.6997 48H87.2993C94.3209 48 99.9995 42.3213 99.9995 35.2998V12.7002C99.9995 5.67866 94.3209 0 87.2993 0H64.6997C57.6782 0.0383693 51.9995 5.71703 51.9995 12.7002ZM64.7381 44.8153C59.4431 44.8153 55.1458 40.518 55.1458 35.223C55.1458 29.9281 59.4431 25.6307 64.7381 25.6307C70.0331 25.6307 74.3304 29.9281 74.3304 35.223C74.3304 40.518 70.0331 44.8153 64.7381 44.8153ZM64.7381 22.3693C59.4431 22.3693 55.1458 18.0719 55.1458 12.777C55.1458 7.48201 59.4431 3.18465 64.7381 3.18465C70.0331 3.18465 74.3304 7.48201 74.3304 12.777C74.3304 18.0719 70.0331 22.3693 64.7381 22.3693ZM87.1842 44.8153C81.8892 44.8153 77.5918 40.518 77.5918 35.223C77.5918 29.9281 81.8892 25.6307 87.1842 25.6307C92.4791 25.6307 96.7765 29.9281 96.7765 35.223C96.7765 40.518 92.4791 44.8153 87.1842 44.8153ZM87.1842 22.3693C81.8892 22.3693 77.5918 18.0719 77.5918 12.777C77.5918 7.48201 81.8892 3.18465 87.1842 3.18465C92.4791 3.18465 96.7765 7.48201 96.7765 12.777C96.7765 18.0719 92.4791 22.3693 87.1842 22.3693Z" fill="#0F0F0F"/>
</svg>
